/* XPM */
static char *dummy[]={
"70 67 18 1",
"# c #000000",
". c #0000ff",
"k c #330000",
"g c #333300",
"a c #333333",
"f c #663333",
"h c #666633",
"j c #666666",
"b c #996666",
"i c #999966",
"n c #999999",
"c c #cc9966",
"e c #cc9999",
"p c #cccc99",
"o c #cccccc",
"d c #ff9999",
"m c #ffcc99",
"l c #ffcccc",
"......................................................................",
"......................................................................",
"......................................................................",
"......................................................................",
"......................................................................",
"......................................................................",
"......................................................................",
"......................................................................",
"......................................................................",
"..........................####........................................",
".......................#####a#####....................................",
".....................##abcddddebf##...................................",
"...................##gbdddchddcbdca#..................................",
"..................##hedcddb#cef#ddef#.................................",
".................##bddc#beh######ahca#................................",
"................##iicdda###ajbbjfa##a##...............................",
"...............##bdakeh##jellllllmeh###...............................",
"...............#bddc###felenlllllllmea#...............................",
"..............#abedb##nllljjlllllloneea#..............................",
".............##e#kf#aolllllllllbep###eea#.............................",
".............#hdb##jlllbjllllle#bb#a#hdb#.............................",
"............##eca#boellnillleoj#on###jldk#............................",
"............#ab##blb#llllea####alljajllda#............................",
"............#bh#jlllolllla#hbbaallllllldf#............................",
"............#h#alllllllln#bdddj#olllllldf#............................",
"............###ollllllllb#edddi#jllllllda#............................",
"............##bljallenlle#hdeb###illllle##............................",
"......########oleellballlj#k##aea#bllllb#.............................",
".....##f#aja#fllllllllllllnfhnlllbellle##.............................",
".....#be#blllllllllllllllllellllllllllf##.............................",
".....#ec#bllllllloaelllllle#oleelllllb#h##............................",
".....#ed#jlllejolljolllelllellafllllj##b##............................",
".....#bdaalle##knlllllo#elllllolllea#afb##............................",
".....#adb#nek####kjelllolllllllonh###bdb#.............................",
"......#beak##.##ba###aahjjjjhaa####cbcc##.............................",
"......##fa##...#abkba#ak#####ag#..#abh##..............................",
".......####.....#aedbadb#cdfkdj#...####...............................",
".................#kbedddcddecdf#......................................",
"..................###ahbbbbbbh##......................................",
"....................###########.......................................",
"......................................................................",
"......................................................................",
"......................................................................",
"......................................................................",
"......................................................................",
"......................................................................",
"......................................................................",
"......................................................................",
"......................................................................",
"......................................................................",
"......................................................................",
"......................................................................",
"......................................................................",
"......................................................................",
"......................................................................",
"......................................................................",
"......................................................................",
"......................................................................",
"......................................................................",
"......................................................................",
"......................................................................",
"......................................................................",
"......................................................................",
"......................................................................",
"......................................................................",
"......................................................................",
"......................................................................"};
