/* XPM */
static char * door_xpm[] = {
"64 64 8 1",
" 	c None",
".	c #47704C",
"+	c #FF0000",
"@	c #FF0000",
"#	c #FF0000",
"$	c #FF0000",
"%	c #FF0000",
"&	c #FF0000",
"                        +&&&&&&&&&&&&&&+                        ",
"                        +&&&&&&&&&&&&&&+                        ",
"                        +&&&&&&&&&&&&&&+                        ",
"                        +&&&&&&&&&&&&&&+                        ",
"                        +&&&&&&&&&&&&&&+                        ",
"                        +&&&&&&&&&&&&&&+                        ",
"                        +&&&&&&&&&&&&&&+                        ",
"                        +&&&&&&&&&&&&&&+                        ",
"                %+++++++&&&&&&&&&&&&&&&&+++++++%                ",
"                +&&&&&&&&&&&&&&&&&&&&&&&&&&&&&&+                ",
"                +&&&&&&&&&&&&&&&&&&&&&&&&&&&&&&+                ",
"                +&&&&&&&&&&&&&&&&&&&&&&&&&&&&&&+                ",
"                +&&&&&&&&&&&&&&&&&&&&&&&&&&&&&&+                ",
"                +&&&&&&&&&&&&&&&&&&&&&&&&&&&&&&+                ",
"                +&&&&&&&&&&&&&&&&&&&&&&&&&&&&&&+                ",
"                +&&&&&&&&&&&&&&&&&&&&&&&&&&&&&&+                ",
"        %+++++++&&&&&&&&&&&&&&&&&&&&&&&&&&&&&&&&+++++++%        ",
"        +&&&&&&&&&&&&&&&&&&&&&&&&&&&&&&&&&&&&&&&&&&&&&&+        ",
"        +&&&&&&&&&&&&&&&&&&&&&&&&&&&&&&&&&&&&&&&&&&&&&&+        ",
"        +&&&&&&&&&&&&&&&&&&&&&&&&&&&&&&&&&&&&&&&&&&&&&&+        ",
"        +&&&&&&&&&&&&&&&&&&&&&&&&&&&&&&&&&&&&&&&&&&&&&&+        ",
"        +&&&&&&&&&&&&&&&&&&&&&&&&&&&&&&&&&&&&&&&&&&&&&&+        ",
"        +&&&&&&&&&&&&&&&&&&&&&&&&&&&&&&&&&&&&&&&&&&&&&&+        ",
"        +&&&&&&&&&&&&&&&&&&&&&&&&&&&&&&&&&&&&&&&&&&&&&&+        ",
"        +&&&&&&&&&&&&&&&&&&&&&&&&&&&&&&&&&&&&&&&&&&&&&&+        ",
"        +&&&&&&&&&&&&&&&&&&&&&&&&&&&&&&&&&&&&&&&&&&&&&&+        ",
"        +&&&&&&&&&&&&&&&&&&&&&&&&&&&&&&&&&&&&&&&&&&&&&&+        ",
"        +&&&&&&&&&&&&&&&&&&&&&&&&&&&&&&&&&&&&&&&&&&&&&&+        ",
"        +&&&&&&&&&&&&&&&&&&&&&&&&&&&&&&&&&&&&&&&&&&&&&&+        ",
"        +&&&&&&&&&&&&&&&&&&&&&&&&&&&&&&&&&&&&&&&&&&&&&&+        ",
"        +&&&&&&&&&&&&&&&&&&&&&&&&&&&&&&&&&&&&&&&&&&&&&&+        ",
"        +&&&&&&&&&&&&&&&&&&&&&&&++++++++&&&&&&&&&&&&&&&+        ",
"        +&&&&&&&&&&&&&&&&&&&&&&+        +&&&&&&&&&&&&&&+        ",
"        +&&&&&&&&&&&&&&&&&&&&&&+        +&&&&&&&&&&&&&&+        ",
"        +&&&&&&&&&&&&&&&&&&&&&&+        +&&&&&&&&&&&&&&+        ",
"        +&&&&&&&&&&&&&&&&&&&&&&+        +&&&&&&&&&&&&&&+        ",
"        +&&&&&&&&&&&&&&&&&&&&&&+        +&&&&&&&&&&&&&&+        ",
"        +&&&&&&&&&&&&&&&&&&&&&&+        +&&&&&&&&&&&&&&+        ",
"        +&&&&&&&&&&&&&&&&&&&&&&+        +&&&&&&&&&&&&&&+        ",
"        +&&&&&&&&&&&&&&&&&&&&&&+        +&&&&&&&&&&&&&&+        ",
"        +&&&&&&&&&&&&&&&&&&&&&&+        +&&&&&&&&&&&&&&+        ",
"        +&&&&&&&&&&&&&&&&&&&&&&+        +&&&&&&&&&&&&&&+        ",
"        +&&&&&&&&&&&&&&&&&&&&&&+        +&&&&&&&&&&&&&&+        ",
"        +&&&&&&&&&&&&&&&&&&&&&&+        +&&&&&&&&&&&&&&+        ",
"        +&&&&&&&&&&&&&&&&&&&&&&+        +&&&&&&&&&&&&&&+        ",
"        +&&&&&&&&&&&&&&&&&&&&&&+        +&&&&&&&&&&&&&&+        ",
"        +&&&&&&&&&&&&&&&&&&&&&&+        +&&&&&&&&&&&&&&+        ",
"        +&&&&&&&&&&&&&&&&&&&&&&+        +&&&&&&&&&&&&&&+        ",
"        +&&&&&&&&&&&&&&&&&&&&&&&++++++++&&&&&&&&&&&&&&&+        ",
"        +&&&&&&&&&&&&&&&&&&&&&&&&&&&&&&&&&&&&&&&&&&&&&&+        ",
"        +&&&&&&&&&&&&&&&&&&&&&&&&&&&&&&&&&&&&&&&&&&&&&&+        ",
"        +&&&&&&&&&&&&&&&&&&&&&&&&&&&&&&&&&&&&&&&&&&&&&&+        ",
"        +&&&&&&&&&&&&&&&&&&&&&&&&&&&&&&&&&&&&&&&&&&&&&&+        ",
"        +&&&&&&&&&&&&&&&&&&&&&&&&&&&&&&&&&&&&&&&&&&&&&&+        ",
"        +&&&&&&&&&&&&&&&&&&&&&&&&&&&&&&&&&&&&&&&&&&&&&&+        ",
"        +&&&&&&&&&&&&&&&&&&&&&&&&&&&&&&&&&&&&&&&&&&&&&&+        ",
"        +&&&&&&&&&&&&&&&&&&&&&&&&&&&&&&&&&&&&&&&&&&&&&&+        ",
"        +&&&&&&&&&&&&&&&&&&&&&&&&&&&&&&&&&&&&&&&&&&&&&&+        ",
"        +&&&&&&&&&&&&&&&&&&&&&&&&&&&&&&&&&&&&&&&&&&&&&&+        ",
"        +&&&&&&&&&&&&&&&&&&&&&&&&&&&&&&&&&&&&&&&&&&&&&&+        ",
"        +&&&&&&&&&&&&&&&&&&&&&&&&&&&&&&&&&&&&&&&&&&&&&&+        ",
"        +&&&&&&&&&&&&&&&&&&&&&&&&&&&&&&&&&&&&&&&&&&&&&&+        ",
"        +&&&&&&&&&&&&&&&&&&&&&&&&&&&&&&&&&&&&&&&&&&&&&&+        ",
"        +&&&&&&&&&&&&&&&&&&&&&&&&&&&&&&&&&&&&&&&&&&&&&&+        "};
