/* XPM */
static char *dummy[]={
"70 64 33 1",
". c #000000",
"# c #0000ff",
"t c #003300",
"C c #330000",
"j c #333300",
"h c #333333",
"E c #333366",
"i c #336633",
"s c #336666",
"u c #663333",
"d c #666633",
"a c #666666",
"l c #666699",
"c c #669966",
"k c #669999",
"D c #993333",
"y c #996633",
"A c #996666",
"m c #999966",
"b c #999999",
"r c #9999cc",
"g c #99cc66",
"f c #99cc99",
"v c #cc6666",
"w c #cc9966",
"e c #cccc99",
"o c #cccccc",
"p c #ccccff",
"q c #ccffff",
"z c #ff6666",
"B c #ff9966",
"x c #ff9999",
"n c #ffffff",
"................................................######################",
"................................................######################",
"..abbbbbbbbbbbbbbbbbbbbccccd....................######################",
"..beefbbbfeffeffeffefbbccggc....................######################",
"..beeh...heijejiehheh...hggc....................######################",
"..beehhbbfea.c.aehhefa.dcggc....................######################",
"..beehhbbeee...eehheeb.cgggc.hhhhhhhhhhhhhhhhj..######################",
"..beeh...eeei.ieehheeb.cgggc.abbbbbbbbkkkkkkka..######################",
"..beehhbbeee...eehheeb.cgggc.hhhhhhhhhhhhhhhla..######################",
"..beehhbbfea.c.aehheem.cgggc.hhhhhhhhhhhhhh.aa..######################",
"..beeh...heijejiehheec.cgggc.bnnnnnnnnoooob.aa..######################",
"..beefbbbfeffeffeffefgcggggc.bnnnnnnnnoooob.aa..######################",
"..beeeeeeeeeeeeefeeefggggggc.bnnnnnnnnpooob.aa..######################",
"..beeeeeeeeeeeeb.defgggggggc.bnnnnnnnnqooob.aa..######################",
"..beeeeeeeeeeeeb..iggggggggc.bnnnnnnnnqooob.aa..######################",
"..beeeeeej.......h.igggggggc.bnnnnnnnnqooob.aa..######################",
"..beeeeee.haaaaaars.iggggggc.bnnnnnnnnnooob.aa..######################",
"..beeeeee.aooooorrb.tggggggc.bnnnnnnnnqooob.aa..######################",
"..beeeeee........l..cggggggc.bnnnnnnnnqooob.aa..######################",
"..beeeeeecadiiih...cgggggggc.bnnnnnnnnqooob.aa..######################",
"..meeeeefffggggc..cggggggggc.bnnnnnnnnpooob.aa..######################",
"..cggggggggggggghcgggggggggc.bnnnnnnnnoooob.aa..######################",
"..cggggggggggggggggggggggggc.bnnnnnnnnoooob.aa..######################",
"..jhhhhhhhhhhhhhhhhhhhhhhhhj.bnnnnnnnnoooob.aa..######################",
"......................h..hhhhonnnnnnnnoooob.aa..######################",
".....................hbhhnnnnnnnnnnnnnoooob.aa..######################",
".....................hbhhnnnnnnnnnnnnpoooob.aa..######################",
".....................hbhhnnnnnnnnnnnnooooob.aa..######################",
".....................hbhhnnnnnnnnnnnnooooob.aa..######################",
".....................hbhhnnnnnnnnnnnpooooob.aa..######################",
".....................hbhhnnnnnnnnnnnoooooob.aa..######################",
".....................hbhhnnnnnnnnnnnoooooob.aa..######################",
".....................hbhhhonnnnnnnnooooooob.aa..######################",
".....................hbht.annnnnnnnooooooob.aa..######################",
".....................hbh...onnnnnnoooooooob.aa..######################",
"........uu...........hb..v.annnnnqoooooooob.aa..######################",
"........ww...........hb.uxu.ootanooooooooob.aa..######################",
".......uxxu...........h.wxw.ht..aooooooooob.aa..######################",
"...vu..wxxw..uv....uw..uxxxu..vu.roooooooob.aa..######################",
"..uxxdyxxxxyuzzu...wxwuwxxxwuvzv.aoooooooob.aa..######################",
"..AxxxxxxxxBzzzy..CxxxxxxxxBzzzzChoooooooob.aa..######################",
"..AxxxxxxxBzzzzy..hxxxxxxxBzzzzzjhoooooooob.aa..######################",
"..yxxxxxBBzzzzzD...xxxxxxBzzzzzz.aoooooooob.aa..######################",
"..CxxxBBzzzzzzzC...AxxxBBzzzzzzy.boooooooob.aa..######################",
"...uBBzzzzzzzzu.....vBzzzzzzzzv.hooooooooob.aa..######################",
"....CuDDDDDDuC.......uuDDDDDuu..kbbbbbbbbba.EE..######################",
"................................................######################",
"................................................######################",
"######################################################################",
"######################################################################",
"######################################################################",
"######################################################################",
"######################################################################",
"######################################################################",
"######################################################################",
"######################################################################",
"######################################################################",
"######################################################################",
"######################################################################",
"######################################################################",
"######################################################################",
"######################################################################",
"######################################################################",
"######################################################################"};
