/* XPM */
static char *dummy[]={
"48 48 14 1",
"# c #000000",
". c #0000ff",
"i c #330033",
"a c #333333",
"b c #666666",
"l c #666699",
"e c #669999",
"f c #999999",
"k c #9999cc",
"h c #99cccc",
"c c #cccccc",
"d c #ccccff",
"j c #ccffff",
"g c #ffffff",
"................................................",
"................................................",
"................................................",
"................................................",
"................................................",
"................................................",
"................#####...........................",
"...............#abbba##.........................",
"...............#cddddca#........................",
"...............#eddcfba#######..................",
"...............##fa###abbbbbba###...............",
"...............###afcgggggggggcb##..............",
"..............##ahggggggggggca#af##.............",
".............##fggggggggggggf#a#bh##............",
"............#acgggggggggggggf#i#fdb#............",
"...........#acgggggggcfbbbfcjb#bdjc##...........",
"..........##cgggggcba#######acgggjda#...........",
".........##hggggcb##bfcgggcb##fgggjf##..........",
".........#bggggk##bcggfaaaaafa#cgggjba##........",
"........##cgggf#acggga#abbba#c#agggggdb#........",
"........#bgggf#aggggf#fggggb#fb#ffffffa#........",
"........#cggc#agggggaaggggc############.........",
".......#aggga#cgggca#bgggda#ffa#................",
".......#bggf#fgggb###bgggb#fdf##................",
".......#fggb#ggca##.#fgca#lde##.................",
".......#kggaagga#...#fb##bfa##..................",
".......#cgg#bgb#....########....................",
".......#cgg#bf#.....##..##......................",
".......#fgg#ba#.................................",
".......#fgga##..................................",
".......#bggf##..................................",
".......#aggc##..................................",
".......##cgc#...................................",
"........#bgf#...................................",
"........##cf###.................................",
".........#bf##i##...............................",
"........##bgcggca#..............................",
".......#acgggggjf#..............................",
".......#cggggggjd##.............................",
"......##ggggccgjca#.............................",
".......#cggc##aa##..............................",
".......#fhb#####................................",
".......#####....................................",
"................................................",
"................................................",
"................................................",
"................................................",
"................................................"};
