/* XPM */
static char *dummy[]={
"69 69 13 1",
". c #0000ff",
"k c #333333",
"h c #666633",
"d c #666666",
"g c #669933",
"f c #669966",
"j c #66cc33",
"c c #999966",
"e c #999999",
"i c #99cc33",
"b c #99cc66",
"a c #99cc99",
"# c #cccc99",
".....................................................................",
".....................................................................",
".....................................................................",
".....................................................................",
".....................................................................",
"...###########abbcdde###########abbfdde#####d........................",
"...##########abbbcdde##########abbbfdde#####d........................",
"...########abbbbbfdde########abbbbbfddc####ad........................",
"...######abbbbbbbfddc######abbbbbbbfddc###bbd........................",
"...#####abbbbbbbbfddc####abbbbbbbbbfddc#abbbd........................",
"...###abbbbbbbbbbfddc###abbbbbbbbbbdddcbbbbbd........................",
"...#abbbbbbbbbbbbfddc#abbbbbbbbbbbbdddcbbbbbd........................",
"...bbbbbbbbbbbbbbgddcbbbbbbbbbbbbbbdddcbbbbbh........................",
"...bbbbbbbbbbbbbigddcbbbbbbbbbbbbbihddcbbbbbh........................",
"...bbbbbbbbbbbiijgddcbbbbbbbbbbbiijhddfbbbiih........................",
"...fddddddddddhhhddddddddddddhhhhhhhdddhhhhhh........................",
"...dddddddddddddddddddddddddddddddddddddddddd........................",
"...dddddddddddddddddddddddddddddddddddddddddd........................",
"...aaaaacddcaaaaaaaaccccccfddcaaaaaaccccccccd........................",
"...#####cddc##########abbbfddc###########abbd........................",
"...#####cddc#########abbbbfddc#########abbbbd........................",
"...####bcddc#######abbbbbbfddc#######abbbbbbd........................",
"...##bbbcddc#####abbbbbbbbfddc#####abbbbbbbbd........................",
"...abbbbcddc####bbbbbbbbbbfddc###abbbbbbbbbbd........................",
"...bbbbbfddc##abbbbbbbbbbbfddc##abbbbbbbbbbbh........................",
"...bbbbbfddcabbbbbbbbbbbbbgddcabbbbbbbbbbbbbh........................",
"...bbbbbfddfbbbbbbbbbbbbbbgddcbbbbbbbbbbbbbbh........................",
"...bbbbigddfbbbbbbbbbbbbiihddcbbbbbbbbbbbbijh........................",
"...fffgghdddcccccffffggggghddfccccffffggggggh........................",
"...dddddddddddddddddkkkkkkddddkkkkkkkkkkkkkkk........................",
"...dddddddddddddddddddddddddddddddddddddddddd........................",
"...cffffffffddddddddddddddddddddddddddddddddd........................",
"...###########abbcddc###########abbfkdc#####d........................",
"...#########abbbbfddc#########abbbbdkdc#####d........................",
"...########abbbbbfddc########abbbbbdkdc####ad........................",
"...######abbbbbbbfddc######abbbbbbbdkkc##abbd........................",
"...####abbbbbbbbbfkdc####abbbbbbbbbdkkcab.bbd........................",
"...###bbbbbbbbbbbgkdc##abbbbbbbbbbbhkkcbbbbbd........................",
"...#abbbbbbbbbbbbgkdf#abbbbbbbbbbbbhkkcbbbbbd........................",
"...bbbbbbbbbbbbbbgkdfbbbbbbbbbbbbbbhkkfbbbbbh........................",
"...bbbbbbbbbbbbbigkdfbbbbbbbbbbbbbihkkfbbbbbh........................",
"...bbbbbbbbbbbiijgkdfbbbbbbbbbbbijjhkkfbbbijh........................",
"...hhhhhhhhhhhhhhkk.dhhhhhhhhhhhhhhkk.hhhhhh.........................",
".....................................................................",
".....................................................................",
".....................................................................",
".....................................................................",
".....................................................................",
".....................................................................",
".....................................................................",
".....................................................................",
".....................................................................",
".....................................................................",
".....................................................................",
".....................................................................",
".....................................................................",
".....................................................................",
".....................................................................",
".....................................................................",
".....................................................................",
".....................................................................",
".....................................................................",
".....................................................................",
".....................................................................",
".....................................................................",
".....................................................................",
".....................................................................",
".....................................................................",
"....................................................................."};
